<?xml version="1.0" encoding="UTF-8"?>
<!DOCTYPE svg PUBLIC "-//W3C//DTD SVG 1.1//EN" "http://www.w3.org/Graphics/SVG/1.1/DTD/svg11.dtd">
<!-- Creator: CorelDRAW X8 -->
<svg xmlns="http://www.w3.org/2000/svg" xml:space="preserve" width="1000px" height="1000px" version="1.1" style="shape-rendering:geometricPrecision; text-rendering:geometricPrecision; image-rendering:optimizeQuality; fill-rule:evenodd; clip-rule:evenodd"
viewBox="0 0 10000 10000"
 xmlns:xlink="http://www.w3.org/1999/xlink">
 <defs>
  <style type="text/css">
   <![CDATA[
    .str1 {stroke:#2C682C;stroke-width:19.9961}
    .str0 {stroke:#2C682C;stroke-width:20.8347}
    .fil0 {fill:none}
    .fil1 {fill:#2C682C;fill-rule:nonzero}
    .fil2 {fill:white;fill-rule:nonzero}
   ]]>
  </style>
 </defs>
 <g id="Слой_x0020_1">
  <metadata id="CorelCorpID_0Corel-Layer"/>
  <g id="_2143158912912">
   <g>
    <rect class="fil0 str0" x="163" y="512" width="809" height="308"/>
    <line class="fil0 str0" x1="438" y1="512" x2="438" y2= "820" />
    <line class="fil0 str0" x1="567" y1="512" x2="567" y2= "820" />
    <line class="fil0 str0" x1="696" y1="512" x2="696" y2= "820" />
    <polyline class="fil0 str0" points="1038,127 1038,451 97,451 97,127 "/>
    <rect class="fil0 str0" x="97" width="948" height="118"/>
    <line class="fil0 str0" x1="163" y1="512" x2="97" y2= "451" />
    <line class="fil0 str0" x1="972" y1="512" x2="1038" y2= "451" />
    <line class="fil0 str0" x1="758" y1="682" x2="908" y2= "595" />
    <line class="fil0 str0" x1="807" y1="752" x2="910" y2= "692" />
    <line class="fil0 str0" x1="220" y1="682" x2="370" y2= "595" />
    <line class="fil0 str0" x1="269" y1="752" x2="372" y2= "692" />
    <rect class="fil0 str0" x="171" y="118" width="792" height="283"/>
    <line class="fil0 str0" x1="0" y1="820" x2="158" y2= "820" />
    <line class="fil0 str0" x1="976" y1="820" x2="1134" y2= "820" />
   </g>
   <g>
    <polygon class="fil0 str1" points="1757,194 2630,194 2630,98 2194,1 1757,92 "/>
    <line class="fil0 str0" x1="1624" y1="819" x2="2763" y2= "819" />
    <g>
     <path class="fil1" d="M2512 475l0 270 -20 0 0 -270 20 0zm108 270l0 -270 20 0 0 270 -20 0z"/>
    </g>
    <g>
     <path class="fil1" d="M2699 819l0 -11 20 0 0 11 -10 7 -10 -7zm20 0l0 7 -10 0 10 -7zm-295 -7l285 0 0 14 -285 0 -10 -7 10 -7zm0 14l-10 0 0 -7 10 7zm10 -18l0 11 -20 0 0 -11 20 0z"/>
    </g>
    <line class="fil0 str0" x1="2566" y1="471" x2="2566" y2= "691" />
    <path class="fil0 str0" d="M2485 395l160 0c11,0 21,10 21,22l0 31c0,12 -10,22 -21,22l-160 0c-12,0 -21,-10 -21,-22l0 -31c0,-12 9,-22 21,-22z"/>
    <g>
     <path class="fil1" d="M2512 194l0 205 -20 0 0 -205 20 0zm108 205l0 -205 20 0 0 205 -20 0z"/>
    </g>
    <line class="fil0 str0" x1="2566" y1="246" x2="2566" y2= "394" />
    <polyline class="fil0 str0" points="2439,817 2502,745 2630,745 2694,817 "/>
    <g>
     <path class="fil1" d="M1767 475l0 270 -20 0 0 -270 20 0zm108 270l0 -270 20 0 0 270 -20 0z"/>
    </g>
    <g>
     <path class="fil1" d="M1953 819l0 -11 20 0 0 11 -10 7 -10 -7zm20 0l0 7 -10 0 10 -7zm-294 -7l284 0 0 14 -284 0 -10 -7 10 -7zm0 14l-10 0 0 -7 10 7zm10 -18l0 11 -20 0 0 -11 20 0z"/>
    </g>
    <line class="fil0 str0" x1="1821" y1="471" x2="1821" y2= "691" />
    <path class="fil0 str0" d="M1740 395l159 0c12,0 21,10 21,22l0 31c0,12 -9,22 -21,22l-159 0c-12,0 -22,-10 -22,-22l0 -31c0,-12 10,-22 22,-22z"/>
    <g>
     <path class="fil1" d="M1767 194l0 205 -20 0 0 -205 20 0zm108 205l0 -205 20 0 0 205 -20 0z"/>
    </g>
    <line class="fil0 str0" x1="1821" y1="246" x2="1821" y2= "394" />
    <polyline class="fil0 str0" points="1693,817 1757,745 1885,745 1949,817 "/>
    <circle class="fil0 str0" cx="2266" cy="111" r="32"/>
    <circle class="fil0 str0" cx="2393" cy="116" r="27"/>
    <circle class="fil0 str0" cx="2122" cy="111" r="32"/>
    <circle class="fil0 str0" cx="1995" cy="116" r="27"/>
   </g>
   <g>
    <path class="fil0 str0" d="M3395 820l119 0 0 -158 -119 0 0 158zm119 -232l0 -173c0,-16 13,-30 30,-30l35 0 0 -119 -95 0c-49,1 -89,40 -89,89l0 233 119 0zm131 -203l50 0 0 -119 -50 0 0 119zm286 0l65 0 0 -121 -65 1 0 120zm130 0l36 0c16,0 30,14 30,30l0 173 118 0 0 -235c0,-25 -9,-46 -26,-63 -17,-18 -39,-26 -63,-26l-95 0 0 121zm66 277l0 158 118 0 0 -158 -118 0z"/>
    <path class="fil0 str0" d="M3371 588l153 0c16,0 30,13 30,29l0 15c0,17 -14,30 -30,30l-153 0c-17,0 -30,-13 -30,-30l0 -15c0,-16 13,-29 30,-29z"/>
    <path class="fil0 str0" d="M4109 588l154 0c16,0 29,13 29,29l0 15c0,17 -13,30 -29,30l-154 0c-16,0 -29,-13 -29,-30l0 -15c0,-16 13,-29 29,-29z"/>
    <path class="fil0 str0" d="M3645 258l0 135c0,15 -12,27 -27,27l-13 0c-14,0 -26,-12 -26,-27l0 -135c0,-14 12,-26 26,-26l13 0c15,0 27,12 27,26z"/>
    <path class="fil0 str0" d="M4061 258l0 135c0,15 -11,27 -26,27l-13 0c-14,0 -26,-12 -26,-27l0 -135c0,-14 12,-26 26,-26l13 0c15,0 26,12 26,26z"/>
    <path class="fil0 str0" d="M3725 232l176 0c16,0 30,13 30,30l0 128c0,16 -14,30 -30,30l-176 0c-17,0 -30,-14 -30,-30l0 -128c0,-17 13,-30 30,-30z"/>
    <path class="fil0 str0" d="M3751 237l0 -39c0,-11 9,-20 20,-20l89 0c11,0 20,9 20,20l0 39"/>
    <path class="fil0 str0" d="M3714 0l203 0c16,0 29,13 29,30l0 14c0,17 -13,30 -29,30l-203 0c-16,0 -30,-13 -30,-30l0 -14c0,-17 14,-30 30,-30z"/>
    <line class="fil0 str0" x1="3787" y1="74" x2="3787" y2= "178" />
    <line class="fil0 str0" x1="3843" y1="74" x2="3843" y2= "178" />
    <line class="fil0 str0" x1="3251" y1="820" x2="4390" y2= "820" />
    <line class="fil0 str0" x1="3742" y1="372" x2="3827" y2= "372" />
    <line class="fil0 str0" x1="3858" y1="372" x2="3884" y2= "372" />
   </g>
   <g>
    <g>
     <path class="fil0 str0" d="M5428 1l32 0c12,0 21,10 21,22l0 417 -74 0 0 -417c0,-12 9,-22 21,-22z"/>
     <polyline class="fil0 str0" points="5407,99 5274,225 5407,225 "/>
     <line class="fil0 str0" x1="5278" y1="225" x2="5278" y2= "316" />
     <line class="fil0 str0" x1="5233" y1="279" x2="5324" y2= "279" />
     <line class="fil0 str0" x1="5233" y1="316" x2="5324" y2= "316" />
     <polyline class="fil0 str0" points="5407,314 5274,440 5407,440 "/>
     <line class="fil0 str0" x1="5278" y1="440" x2="5278" y2= "531" />
     <line class="fil0 str0" x1="5233" y1="494" x2="5324" y2= "494" />
     <line class="fil0 str0" x1="5233" y1="531" x2="5324" y2= "531" />
     <polyline class="fil0 str0" points="5487,99 5619,225 5487,225 "/>
     <line class="fil0 str0" x1="5615" y1="225" x2="5615" y2= "316" />
     <line class="fil0 str0" x1="5661" y1="279" x2="5570" y2= "279" />
     <line class="fil0 str0" x1="5661" y1="316" x2="5570" y2= "316" />
     <polyline class="fil0 str0" points="5487,314 5619,440 5487,440 "/>
     <line class="fil0 str0" x1="5615" y1="440" x2="5615" y2= "531" />
     <line class="fil0 str0" x1="5661" y1="494" x2="5570" y2= "494" />
     <line class="fil0 str0" x1="5661" y1="531" x2="5570" y2= "531" />
     <line class="fil0 str0" x1="5407" y1="221" x2="5487" y2= "225" />
     <rect class="fil0 str0" x="5404" y="440" width="80.6382" height="375.771"/>
    </g>
    <line class="fil0 str0" x1="4877" y1="819" x2="6017" y2= "819" />
    <g>
     <line class="fil0 str0" x1="5165" y1="498" x2="5007" y2= "370" />
     <line class="fil0 str0" x1="5165" y1="305" x2="5007" y2= "177" />
     <line class="fil0 str0" x1="5728" y1="498" x2="5887" y2= "370" />
     <line class="fil0 str0" x1="5728" y1="305" x2="5887" y2= "177" />
    </g>
   </g>
   <g>
    <g>
     <polyline class="fil0 str0" points="7222,752 7222,820 6672,820 6672,68 6750,68 "/>
     <polygon class="fil0 str0" points="6750,0 7179,0 7300,121 7300,752 6750,752 "/>
     <polyline class="fil0 str0" points="7300,121 7179,121 7179,0 "/>
     <g>
      <path class="fil0 str0" d="M6941 173l-55 0c3,-22 64,-40 64,-76 0,-23 -20,-38 -34,-38 -13,0 -22,0 -22,0l-70 0 0 152 147 0 0 -45c0,0 -7,-31 -31,-31l-13 0"/>
      <path class="fil0 str0" d="M6824 195c9,-48 81,-67 73,-98l-40 0"/>
     </g>
     <line class="fil0 str0" x1="6824" y1="399" x2="7225" y2= "399" />
     <line class="fil0 str0" x1="6824" y1="321" x2="7225" y2= "321" />
     <line class="fil0 str0" x1="6824" y1="557" x2="7225" y2= "557" />
     <line class="fil0 str0" x1="6824" y1="478" x2="7225" y2= "478" />
     <line class="fil0 str0" x1="7110" y1="672" x2="7226" y2= "672" />
     <line class="fil0 str0" x1="7129" y1="701" x2="7161" y2= "645" />
     <line class="fil0 str0" x1="7168" y1="701" x2="7214" y2= "623" />
    </g>
    <g>
     <path class="fil0 str0" d="M7377 106l35 0c8,0 15,10 15,21l0 496 -66 0 0 -496c0,-11 7,-21 16,-21z"/>
     <polyline class="fil0 str0" points="7361,623 7394,714 7427,623 "/>
     <line class="fil0 str0" x1="7361" y1="281" x2="7427" y2= "281" />
     <path class="fil0 str0" d="M7427 140c0,0 48,-22 48,47 0,69 0,165 0,165"/>
    </g>
   </g>
  </g>
  <path class="fil2" d="M134 1336l30 0c7,0 12,-6 12,-12l0 -48c0,-6 -5,-12 -12,-12l-42 0c0,0 -1,0 -2,0 -8,0 -35,2 -57,21 -24,22 -22,48 -21,54l0 31 -30 0c-7,0 -12,5 -12,12l0 51c0,7 5,12 12,12l29 0 0 135c0,7 5,12 11,12l60 0c7,0 12,-5 12,-12l0 -134 34 0c6,0 11,-5 12,-11l6 -52c1,-3 0,-7 -3,-9 -2,-3 -5,-4 -9,-4l-40 0 0 -26c0,-6 2,-8 10,-8zm-16 47l0 0 45 0 -6 49 -39 0c-4,0 -7,3 -7,7l0 140 -57 0 0 -141c0,-3 -3,-6 -7,-6l-34 0 0 -49 36 0c4,0 7,-3 7,-6l0 -39c0,0 0,0 0,-1 -1,-4 -4,-24 16,-42 18,-16 42,-18 48,-18 1,0 2,0 2,0 0,0 0,0 0,0l41 0 0 45 -29 0c-15,0 -23,8 -23,22l0 33c0,3 3,6 7,6z"/>
  <path class="fil2" d="M805 1492c-7,-8 -15,-16 -23,-23 -2,-2 -5,-5 -8,-8l0 0c-4,-3 -5,-6 -6,-8 0,-1 1,-4 4,-8 5,-6 9,-12 14,-18 4,-5 8,-11 12,-16l1 -1c7,-11 15,-21 20,-35 1,-4 2,-9 -1,-14 -3,-5 -9,-6 -13,-7 -2,0 -3,0 -5,0l-50 -1c-9,0 -15,4 -18,12 -2,7 -5,14 -9,22 -7,13 -16,29 -28,42l-1 1c0,1 -2,2 -3,3 -1,-1 -3,-6 -2,-9 0,0 0,0 0,0l0 -57c0,0 -1,0 -1,-1 -1,-8 -3,-16 -16,-18 0,0 -1,0 -1,0l-52 0c-10,0 -15,4 -19,9 -1,1 -4,5 -3,9 2,5 7,6 8,6 6,1 9,4 10,10 2,12 2,25 1,40 -1,4 -1,7 -3,10 0,0 0,1 0,1 -1,0 -1,0 -2,-1 -4,-2 -7,-7 -10,-11 -11,-16 -21,-34 -29,-54 -4,-9 -10,-13 -19,-13 -16,-1 -30,-1 -45,0 -6,0 -11,2 -14,6 -2,4 -2,9 1,15 19,44 38,76 58,104 15,19 29,33 46,42 18,11 38,15 61,15 3,0 6,0 8,0 15,0 21,-6 21,-20 1,-7 1,-13 4,-18 1,-2 2,-3 3,-3 0,0 2,1 3,1 3,2 5,5 7,7 2,2 4,4 6,6 4,5 8,9 13,14 10,10 21,14 34,13l45 0 0 0c0,0 1,0 1,0 5,0 10,-3 12,-8 3,-5 3,-12 0,-19 -3,-6 -8,-12 -12,-17zm1 30l0 0c-1,1 -2,1 -2,1l-45 0c0,0 0,0 0,0 -1,0 -1,0 -1,0 -9,1 -17,-2 -24,-9 -4,-5 -8,-9 -12,-14 -2,-2 -4,-4 -6,-6 -3,-3 -6,-6 -10,-8 -6,-4 -10,-4 -13,-3 -4,0 -8,3 -11,9 -4,7 -5,16 -6,24 0,4 -1,6 -1,6 -1,0 -2,1 -7,1 -24,2 -45,-3 -62,-13 -15,-8 -29,-21 -42,-39 -20,-27 -38,-58 -58,-101 0,-2 -1,-2 -1,-3 1,0 2,0 4,0 14,-1 28,-1 44,0 2,0 5,0 7,5 9,21 19,40 31,57 3,4 7,10 13,14 5,4 10,3 12,3 3,-1 7,-3 10,-9 1,-4 2,-9 3,-14 1,-16 1,-30 -1,-43 -2,-9 -6,-15 -14,-19 2,0 3,-1 5,-1l51 0c3,1 4,2 4,2 1,1 1,4 1,6l1 56c-1,6 2,18 11,21 0,0 0,0 0,0 9,3 14,-3 17,-6l0 -1c14,-14 23,-31 31,-46 3,-7 7,-15 9,-22 2,-3 3,-4 6,-4 0,0 0,0 0,0l50 0c1,0 2,0 3,1 2,0 3,0 4,1 0,0 0,1 -1,3 -4,12 -11,21 -18,31l-1 2c-4,5 -8,10 -12,15 -4,6 -9,12 -13,18 -10,13 -9,22 3,34 3,2 6,5 8,8 8,7 16,14 22,22 4,4 8,9 11,14 1,3 1,6 0,7z"/>
  <g>
   <path class="fil2" d="M1381 1332l-29 0c-9,0 -16,7 -16,16l0 30c0,9 7,16 16,16l29 0c8,0 15,-7 15,-16l0 -30c0,-9 -7,-16 -15,-16zm3 46l0 0c0,2 -1,4 -3,4l-29 0c-2,0 -4,-2 -4,-4l0 -30c0,-2 2,-3 4,-3l29 0c2,0 3,1 3,3l0 30z"/>
   <path class="fil2" d="M1365 1301l-167 0c-34,0 -62,29 -62,64l0 41 0 13 0 110c0,35 28,63 62,63l167 0c34,0 62,-28 62,-63l0 -110 0 -13 0 -41c0,-35 -28,-64 -62,-64zm50 228l0 0c0,28 -23,51 -50,51l-167 0c-28,0 -50,-23 -50,-51l0 -110 74 0c-16,16 -26,37 -26,62 0,47 38,86 85,86 47,0 85,-39 85,-86 0,-25 -10,-46 -25,-62l74 0 0 110zm-61 -48l0 0c0,41 -33,74 -73,74 -40,0 -72,-33 -72,-74 0,-41 32,-75 72,-75 40,0 73,34 73,75zm-29 -75l0 0c-13,-7 -28,-12 -44,-12 -16,0 -30,5 -43,12l-90 0 0 -41c0,-29 22,-51 50,-51l167 0c27,0 50,22 50,51l0 41 -90 0z"/>
   <path class="fil2" d="M1227 1481c0,30 24,55 54,55 30,0 55,-25 55,-55 0,-31 -25,-56 -55,-56 -30,0 -54,25 -54,56zm97 0l0 0c0,24 -19,43 -43,43 -23,0 -42,-19 -42,-43 0,-24 19,-44 42,-44 24,0 43,20 43,44z"/>
  </g>
 </g>
</svg>
